# xmcd
#
# Track frame offsets: 
#        187
#        12475
#        31150
#        58225
#        79075
#        96250
#        107350
#        123115
#        134890
#        157915
#        169240
#        194365
#        212065
#
# Disc length: 3093 seconds
#
# Revision: 2
# Processed by: cddbd v1.5.2PL0 Copyright (c) Steve Scherf et al.
# Submitted via: ExactAudioCopy v0.95b3
#
DISCID=ae0c130d
DTITLE=Jack Lemmon with Tommy Newsom - Piano and Vocals
DYEAR=1990
DGENRE=Jazz
TTITLE0=Getting Some Fun Out of Life
TTITLE1=With All My Love
TTITLE2=Slient Night Blues
TTITLE3=Like Someone in Love
TTITLE4=Sure Thing
TTITLE5=Nevermore
TTITLE6=Pack Up Your Toubles in Your Old Kit Bag and Smile, Smile, Smi
TTITLE6=le
TTITLE7=Here's That Rainy Day
TTITLE8=J.L.'s Blues
TTITLE9=On the Sunny Side of the Street
TTITLE10=Georgia On My Mind
TTITLE11=Embraceable You
TTITLE12=(Back Home Again in) Indiana
EXTD=more info
EXTT0=
EXTT1=
EXTT2=
EXTT3=
EXTT4=
EXTT5=
EXTT6=
EXTT7=
EXTT8=
EXTT9=
EXTT10=
EXTT11=
EXTT12=
PLAYORDER=
